<?xml version="1.0" encoding="iso-8859-1"?><!DOCTYPE svg PUBLIC "-//W3C//DTD SVG 1.1//EN" "http://www.w3.org/Graphics/SVG/1.1/DTD/svg11.dtd"><svg version="1.1" xmlns="http://www.w3.org/2000/svg" xmlns:xlink="http://www.w3.org/1999/xlink"  width="30px" height="30px" viewBox="0 0 30 30" class="icon-twitter"><g><path fill="#4EC8F4" class="bg" d="M30 15c0 8.3-6.7 15-15 15C6.7 30 0 23.3 0 15 0 6.7 6.7 0 15 0 23.3 0 30 6.7 30 15"/><path fill="#FFFFFF" d="M22.5 10.4c-0.4 0.6-0.9 1.1-1.5 1.6 0 0.1 0 0.2 0 0.4 0 0.8-0.1 1.6-0.4 2.5 -0.2 0.8-0.6 1.6-1.1 2.4 -0.5 0.8-1.1 1.4-1.7 2 -0.7 0.6-1.5 1-2.4 1.4 -1 0.3-2 0.5-3.1 0.5 -1.7 0-3.3-0.5-4.7-1.4 0.2 0 0.5 0 0.7 0 1.4 0 2.7-0.4 3.8-1.3 -0.7 0-1.3-0.2-1.8-0.6 -0.5-0.4-0.9-0.9-1.1-1.5 0.2 0 0.4 0 0.6 0 0.3 0 0.5 0 0.8-0.1 -0.7-0.1-1.3-0.5-1.8-1.1s-0.7-1.2-0.7-1.9v0c0.4 0.2 0.9 0.4 1.4 0.4 -0.4-0.3-0.7-0.6-1-1.1 -0.2-0.4-0.4-0.9-0.4-1.5 0-0.6 0.1-1.1 0.4-1.5 0.8 0.9 1.7 1.7 2.8 2.3 1.1 0.6 2.3 0.9 3.5 0.9 0-0.2-0.1-0.5-0.1-0.7 0-0.8 0.3-1.6 0.9-2.2 0.6-0.6 1.3-0.9 2.2-0.9 0.9 0 1.6 0.3 2.2 1 0.7-0.1 1.3-0.4 1.9-0.7 -0.2 0.7-0.7 1.3-1.3 1.7C21.3 10.8 21.9 10.6 22.5 10.4z"/></g></svg>
