<?xml version="1.0" encoding="iso-8859-1"?><!DOCTYPE svg PUBLIC "-//W3C//DTD SVG 1.1//EN" "http://www.w3.org/Graphics/SVG/1.1/DTD/svg11.dtd"><svg version="1.1" xmlns="http://www.w3.org/2000/svg" xmlns:xlink="http://www.w3.org/1999/xlink"  width="30px" height="30px" viewBox="0 0 30 30" class="icon-pinterest"><g><path fill="#D02E27" class="bg" d="M30 15C30 23.3 23.3 30 15 30 6.7 30 0 23.3 0 15 0 6.7 6.7 0 15 0 23.3 0 30 6.7 30 15"/><path fill="#FFFFFF" d="M9.3 12.5c0-0.6 0.1-1.2 0.3-1.8 0.2-0.6 0.5-1.1 0.9-1.5 0.4-0.4 0.8-0.8 1.4-1.1 0.5-0.3 1.1-0.5 1.7-0.7 0.6-0.2 1.2-0.2 1.8-0.2 0.9 0 1.8 0.2 2.6 0.6 0.8 0.4 1.5 1 2 1.7s0.8 1.6 0.8 2.6c0 0.6-0.1 1.1-0.2 1.7 -0.1 0.5-0.3 1.1-0.5 1.6s-0.5 1-0.9 1.3 -0.8 0.7-1.3 0.9c-0.5 0.2-1.1 0.3-1.7 0.3 -0.4 0-0.8-0.1-1.2-0.3s-0.7-0.5-0.9-0.8c-0.1 0.2-0.1 0.6-0.2 1s-0.2 0.7-0.2 0.8c0 0.1-0.1 0.3-0.2 0.6 -0.1 0.3-0.2 0.5-0.2 0.6 -0.1 0.1-0.2 0.3-0.3 0.6s-0.3 0.5-0.4 0.7c-0.1 0.2-0.3 0.5-0.6 0.8l-0.1 0 -0.1-0.1c-0.1-0.9-0.1-1.5-0.1-1.7 0-0.5 0.1-1.2 0.2-1.8 0.1-0.7 0.3-1.5 0.6-2.6 0.3-1 0.4-1.6 0.5-1.8 -0.2-0.4-0.3-0.9-0.3-1.5 0-0.5 0.2-1 0.5-1.4 0.3-0.4 0.7-0.7 1.2-0.7 0.4 0 0.6 0.1 0.9 0.4 0.2 0.2 0.3 0.5 0.3 0.9 0 0.4-0.1 1-0.4 1.7s-0.4 1.3-0.4 1.7c0 0.4 0.1 0.7 0.4 0.9 0.3 0.2 0.6 0.4 1 0.4 0.3 0 0.6-0.1 0.9-0.2 0.3-0.1 0.5-0.4 0.7-0.6s0.4-0.5 0.5-0.8 0.3-0.6 0.3-1c0.1-0.3 0.1-0.7 0.2-1s0.1-0.6 0.1-0.9c0-1-0.3-1.8-1-2.4s-1.5-0.9-2.5-0.9c-1.2 0-2.2 0.4-3 1.2 -0.8 0.8-1.2 1.7-1.2 2.9 0 0.3 0 0.5 0.1 0.8 0.1 0.2 0.2 0.4 0.2 0.6 0.1 0.1 0.2 0.3 0.2 0.4 0.1 0.1 0.1 0.2 0.1 0.3 0 0.2 0 0.4-0.1 0.7s-0.2 0.4-0.3 0.4c0 0-0.1 0-0.2 0 -0.3-0.1-0.6-0.3-0.8-0.5 -0.2-0.2-0.4-0.5-0.5-0.8 -0.1-0.3-0.2-0.6-0.3-1C9.3 13.1 9.3 12.8 9.3 12.5z"/></g></svg>
