<?xml version="1.0" encoding="iso-8859-1"?><!DOCTYPE svg PUBLIC "-//W3C//DTD SVG 1.1//EN" "http://www.w3.org/Graphics/SVG/1.1/DTD/svg11.dtd"><svg xmlns="http://www.w3.org/2000/svg" width="30" height="30" viewBox="0 0 30 30" class="icon"><path class="share_circle" d="M15 30c8.3 0 15-6.7 15-15S23.3 0 15 0C6.7 0 0 6.7 0 15S6.7 30 15 30" fill="#A6A8AB" /><path class="share_circle_icon" d="M18.6 16.6c-0.7 0-1.3 0.3-1.7 0.7l-3.1-1.8c0-0.1 0-0.3 0-0.4 0-0.2 0-0.3 0-0.4l3.3-1.9c0.4 0.4 1 0.6 1.6 0.6 1.3 0 2.4-1.1 2.4-2.4 0-1.3-1.1-2.4-2.4-2.4s-2.4 1.1-2.4 2.4c0 0.2 0 0.3 0 0.4l-3.3 1.9c-0.4-0.4-1-0.6-1.6-0.6 -1.3 0-2.4 1.1-2.4 2.4 0 1.3 1.1 2.4 2.4 2.4 0.6 0 1.1-0.2 1.6-0.6l3.2 1.9c0 0.1 0 0.1 0 0.2 0 1.3 1.1 2.4 2.4 2.4S21 20.4 21 19C21 17.7 19.9 16.6 18.6 16.6" fill="#FFF" /></svg>
