<?xml version="1.0" encoding="iso-8859-1"?><!DOCTYPE svg PUBLIC "-//W3C//DTD SVG 1.1//EN" "http://www.w3.org/Graphics/SVG/1.1/DTD/svg11.dtd"><svg version="1.1" xmlns="http://www.w3.org/2000/svg" xmlns:xlink="http://www.w3.org/1999/xlink"  width="30px" height="30px" viewBox="0 0 30 30" class="icon-tumblr"><g><path fill="#28364A" class="bg" d="M30 15c0 8.3-6.7 15-15 15C6.7 30 0 23.3 0 15 0 6.7 6.7 0 15 0 23.3 0 30 6.7 30 15"/><path fill="#FFFFFF" d="M19 21.1c-0.2 0.4-1.4 0.8-2.4 0.8 -3 0.1-4.2-2.2-4.2-3.7v-4.6H11v-1.8c2.1-0.8 2.6-2.7 2.7-3.8 0-0.1 0.1-0.1 0.1-0.1h2v3.5h2.8v2.1h-2.8v4.3c0 0.6 0.2 1.4 1.3 1.4 0.4 0 0.9-0.1 1.1-0.2L19 21.1z"/></g></svg>
