<?xml version="1.0" encoding="iso-8859-1"?><!DOCTYPE svg PUBLIC "-//W3C//DTD SVG 1.1//EN" "http://www.w3.org/Graphics/SVG/1.1/DTD/svg11.dtd"><svg version="1.1" xmlns="http://www.w3.org/2000/svg" xmlns:xlink="http://www.w3.org/1999/xlink"  width="30px" height="30px" viewBox="0 0 30 30" class="icon-reddit"><g><path fill="#F37A23" class="bg" d="M30 15C30 23.3 23.3 30 15 30 6.7 30 0 23.3 0 15 0 6.7 6.7 0 15 0 23.3 0 30 6.7 30 15"/><path fill="#FFFFFF" d="M23 14.7c0 0.3-0.1 0.7-0.3 0.9 -0.2 0.3-0.4 0.5-0.7 0.6 0.1 0.3 0.1 0.6 0.1 0.9 0 0.9-0.3 1.8-0.9 2.6 -0.6 0.8-1.5 1.4-2.6 1.9 -1.1 0.5-2.3 0.7-3.6 0.7 -1.3 0-2.5-0.2-3.6-0.7 -1.1-0.5-2-1.1-2.6-1.9 -0.6-0.8-1-1.6-1-2.6 0-0.3 0-0.6 0.1-0.8 -0.3-0.1-0.5-0.4-0.7-0.7 -0.2-0.3-0.3-0.6-0.3-1 0-0.5 0.2-0.9 0.5-1.3 0.3-0.3 0.8-0.5 1.3-0.5 0.5 0 0.9 0.2 1.3 0.6 1.3-0.9 2.8-1.4 4.6-1.4l1-4.7c0-0.1 0.1-0.1 0.1-0.2 0.1 0 0.1-0.1 0.2 0l3.3 0.7c0.1-0.2 0.3-0.4 0.5-0.5 0.2-0.1 0.4-0.2 0.7-0.2 0.4 0 0.7 0.1 0.9 0.4s0.4 0.6 0.4 0.9 -0.1 0.7-0.4 0.9 -0.6 0.4-0.9 0.4c-0.4 0-0.7-0.1-0.9-0.4 -0.3-0.3-0.4-0.6-0.4-0.9L16.2 7.8l-0.9 4.2c1.8 0.1 3.3 0.5 4.6 1.4 0.3-0.4 0.8-0.5 1.3-0.5 0.5 0 0.9 0.2 1.3 0.5C22.8 13.8 23 14.2 23 14.7zM10.7 16.5c0 0.4 0.1 0.7 0.4 0.9 0.3 0.3 0.6 0.4 0.9 0.4s0.7-0.1 0.9-0.4c0.3-0.3 0.4-0.6 0.4-0.9s-0.1-0.7-0.4-0.9c-0.3-0.3-0.6-0.4-0.9-0.4 -0.4 0-0.7 0.1-0.9 0.4S10.7 16.1 10.7 16.5zM18 19.6c0.1-0.1 0.1-0.1 0.1-0.2 0-0.1 0-0.2-0.1-0.2 -0.1-0.1-0.1-0.1-0.2-0.1s-0.2 0-0.2 0.1c-0.2 0.3-0.6 0.4-1.1 0.6 -0.5 0.1-1 0.2-1.4 0.2s-1-0.1-1.4-0.2 -0.8-0.3-1.1-0.6c-0.1-0.1-0.1-0.1-0.2-0.1s-0.2 0-0.2 0.1c-0.1 0.1-0.1 0.1-0.1 0.2 0 0.1 0 0.2 0.1 0.2 0.3 0.3 0.6 0.5 1.1 0.6 0.4 0.1 0.8 0.2 1.1 0.3s0.6 0 0.8 0 0.5 0 0.8 0 0.6-0.1 1.1-0.3C17.4 20.1 17.7 19.9 18 19.6zM17 17.4c0.3 0.3 0.6 0.4 0.9 0.4s0.7-0.1 0.9-0.4c0.3-0.3 0.4-0.6 0.4-0.9 0-0.4-0.1-0.7-0.4-0.9s-0.6-0.4-0.9-0.4c-0.4 0-0.7 0.1-0.9 0.4 -0.3 0.3-0.4 0.6-0.4 0.9S16.7 17.2 17 17.4z"/></g></svg>
