<?xml version="1.0" encoding="iso-8859-1"?><!DOCTYPE svg PUBLIC "-//W3C//DTD SVG 1.1//EN" "http://www.w3.org/Graphics/SVG/1.1/DTD/svg11.dtd"><svg version="1.1" xmlns="http://www.w3.org/2000/svg" xmlns:xlink="http://www.w3.org/1999/xlink"  width="30px" height="30px" viewBox="0 0 30 30" class="icon-linkedin"><g><path fill="#007AB9" class="bg" d="M30 15c0 8.3-6.7 15-15 15S0 23.3 0 15C0 6.7 6.7 0 15 0S30 6.7 30 15"/><path fill="#FFFFFF" d="M11.4 8.8c0 0.4-0.1 0.8-0.5 1.1 -0.3 0.3-0.7 0.4-1.2 0.4H9.7c-0.5 0-0.9-0.1-1.2-0.4S8.1 9.3 8.1 8.8c0-0.4 0.2-0.8 0.5-1.1C8.9 7.4 9.3 7.3 9.8 7.3s0.9 0.1 1.2 0.4C11.3 8 11.4 8.4 11.4 8.8zM11.2 11.6v8.9H8.3v-8.9H11.2zM21.9 15.4v5.1h-3v-4.8c0-0.6-0.1-1.1-0.4-1.5 -0.2-0.4-0.6-0.5-1.1-0.5 -0.4 0-0.7 0.1-0.9 0.3 -0.3 0.2-0.4 0.5-0.6 0.8 -0.1 0.2-0.1 0.4-0.1 0.7v5h-3c0-2.4 0-4.3 0-5.8s0-2.4 0-2.7l0-0.4h3v1.3h0c0.1-0.2 0.2-0.4 0.4-0.5s0.3-0.3 0.5-0.5c0.2-0.2 0.5-0.3 0.8-0.4 0.3-0.1 0.7-0.1 1-0.1 1 0 1.8 0.3 2.5 1S21.9 14.1 21.9 15.4z"/></g></svg>
