<?xml version="1.0" encoding="iso-8859-1"?><!DOCTYPE svg PUBLIC "-//W3C//DTD SVG 1.1//EN" "http://www.w3.org/Graphics/SVG/1.1/DTD/svg11.dtd"><svg version="1.1" xmlns="http://www.w3.org/2000/svg" xmlns:xlink="http://www.w3.org/1999/xlink"  width="30px" height="30px" viewBox="0 0 30 30" class="icon-instagram"><g><path fill="#2E5E86" class="bg" d="M30 15c0 8.3-6.7 15-15 15C6.7 30 0 23.3 0 15 0 6.7 6.7 0 15 0 23.3 0 30 6.7 30 15"/><path fill="#FFFFFF" d="M21.9 10V20.2c0 0.5-0.2 0.9-0.5 1.2 -0.3 0.3-0.8 0.5-1.2 0.5H9.9c-0.5 0-0.9-0.2-1.2-0.5 -0.3-0.3-0.5-0.8-0.5-1.2V10c0-0.5 0.2-0.9 0.5-1.2C9 8.5 9.4 8.3 9.9 8.3h10.2c0.5 0 0.9 0.2 1.2 0.5C21.7 9.1 21.9 9.6 21.9 10zM20.3 19.9v-5.8h-1.2c0.1 0.4 0.2 0.8 0.2 1.2 0 0.8-0.2 1.4-0.6 2.1s-0.9 1.1-1.6 1.5c-0.7 0.4-1.4 0.6-2.1 0.6 -1.2 0-2.2-0.4-3-1.2s-1.2-1.8-1.2-2.9c0-0.4 0.1-0.8 0.2-1.2H9.7v5.8c0 0.2 0.1 0.3 0.2 0.4s0.2 0.2 0.4 0.2h9.5c0.1 0 0.3-0.1 0.4-0.2C20.2 20.2 20.3 20 20.3 19.9zM17 17c0.5-0.5 0.8-1.1 0.8-1.9s-0.3-1.4-0.8-1.9c-0.5-0.5-1.2-0.8-2-0.8 -0.8 0-1.4 0.3-1.9 0.8 -0.5 0.5-0.8 1.2-0.8 1.9s0.3 1.4 0.8 1.9 1.2 0.8 1.9 0.8C15.8 17.8 16.4 17.5 17 17zM20.3 11.9v-1.5c0-0.2-0.1-0.3-0.2-0.4s-0.3-0.2-0.4-0.2h-1.6c-0.2 0-0.3 0.1-0.4 0.2s-0.2 0.3-0.2 0.4v1.5c0 0.2 0.1 0.3 0.2 0.4s0.3 0.2 0.4 0.2h1.6c0.2 0 0.3-0.1 0.4-0.2S20.3 12.1 20.3 11.9z"/></g></svg>

