<?xml version="1.0" encoding="iso-8859-1"?><!DOCTYPE svg PUBLIC "-//W3C//DTD SVG 1.1//EN" "http://www.w3.org/Graphics/SVG/1.1/DTD/svg11.dtd"><svg version="1.1" xmlns="http://www.w3.org/2000/svg" xmlns:xlink="http://www.w3.org/1999/xlink"  width="30px" height="30px" viewBox="0 0 30 30" class="icon-facebook"><g><path fill="#1B75BB" class="bg" d="M30 15c0 8.3-6.7 15-15 15C6.7 30 0 23.3 0 15 0 6.7 6.7 0 15 0 23.3 0 30 6.7 30 15"/><path fill="#FFFFFF" d="M18.7 6.8v2.5h-1.5c-0.5 0-0.9 0.1-1.1 0.3 -0.2 0.2-0.3 0.6-0.3 1v1.8h2.8l-0.4 2.8h-2.4v7.2h-2.9v-7.2h-2.4v-2.8h2.4v-2.1c0-1.2 0.3-2.1 1-2.7 0.7-0.6 1.5-1 2.6-1C17.5 6.7 18.2 6.8 18.7 6.8z"/></g></svg>
