<?xml version="1.0" encoding="iso-8859-1"?><!DOCTYPE svg PUBLIC "-//W3C//DTD SVG 1.1//EN" "http://www.w3.org/Graphics/SVG/1.1/DTD/svg11.dtd"><svg version="1.1" xmlns="http://www.w3.org/2000/svg" xmlns:xlink="http://www.w3.org/1999/xlink"  width="30px" height="30px" viewBox="0 0 30 30" class="icon-email"><g><path fill="#6EA943" class="bg" d="M30 15c0 8.3-6.7 15-15 15C6.7 30 0 23.3 0 15 0 6.7 6.7 0 15 0 23.3 0 30 6.7 30 15"/><path fill="#FFFFFF" d="M22.1 19.3c0 0.7-0.6 1.3-1.3 1.3H9.2c-0.7 0-1.3-0.6-1.3-1.3v-6.3c0.2 0.3 0.5 0.5 0.8 0.7 1.3 0.9 2.6 1.8 3.9 2.7 0.7 0.5 1.5 1.1 2.3 1.1H15h0c0.9 0 1.7-0.6 2.3-1.1 1.3-0.9 2.6-1.8 3.9-2.7 0.3-0.2 0.6-0.4 0.8-0.7V19.3zM20.7 12.9c-1.2 0.9-2.5 1.7-3.7 2.6 -0.5 0.4-1.4 1.1-2 1.1H15h0c-0.6 0-1.5-0.7-2-1.1 -1.2-0.9-2.5-1.7-3.7-2.6C8.7 12.5 7.9 11.6 7.9 10.9c0-0.8 0.4-1.4 1.3-1.4h11.6c0.7 0 1.3 0.6 1.3 1.3C22.1 11.6 21.4 12.4 20.7 12.9"/></g></svg>
