<?xml version="1.0" encoding="iso-8859-1"?><!DOCTYPE svg PUBLIC "-//W3C//DTD SVG 1.1//EN" "http://www.w3.org/Graphics/SVG/1.1/DTD/svg11.dtd"><svg version="1.1" xmlns="http://www.w3.org/2000/svg" xmlns:xlink="http://www.w3.org/1999/xlink"  width="30px" height="30px" viewBox="0 0 30 30" class="icon-googleplus"><g><path fill="#DA4835" class="bg" d="M30 15c0 8.3-6.7 15-15 15C6.7 30 0 23.3 0 15 0 6.7 6.7 0 15 0 23.3 0 30 6.7 30 15"/><path fill="#FFFFFF" d="M17.4 15.1c0 1.2-0.2 2.2-0.7 3.1 -0.5 0.9-1.2 1.6-2.1 2.1 -0.9 0.5-1.9 0.8-3.1 0.8 -0.8 0-1.6-0.2-2.4-0.5 -0.8-0.3-1.4-0.8-2-1.3 -0.5-0.5-1-1.2-1.3-2C5.5 16.6 5.4 15.8 5.4 15s0.2-1.6 0.5-2.4 0.8-1.4 1.3-2c0.5-0.5 1.2-1 2-1.3 0.8-0.3 1.6-0.5 2.4-0.5 1.6 0 3 0.5 4.1 1.6l-1.7 1.6c-0.7-0.6-1.5-0.9-2.4-0.9 -0.7 0-1.3 0.2-1.9 0.5 -0.6 0.3-1 0.8-1.4 1.4C7.9 13.6 7.7 14.3 7.7 15s0.2 1.4 0.5 1.9c0.3 0.6 0.8 1.1 1.4 1.4 0.6 0.3 1.2 0.5 1.9 0.5 0.5 0 0.9-0.1 1.3-0.2 0.4-0.1 0.7-0.3 1-0.5 0.3-0.2 0.5-0.4 0.7-0.7 0.2-0.2 0.3-0.5 0.4-0.7 0.1-0.2 0.1-0.4 0.2-0.6h-3.5v-2.1h5.8C17.4 14.5 17.4 14.8 17.4 15.1zM24.6 14.1v1.8h-1.7v1.7h-1.8v-1.7h-1.7v-1.8h1.7v-1.7h1.8v1.8H24.6z"/></g></svg>
