<?xml version="1.0" encoding="iso-8859-1"?><!DOCTYPE svg PUBLIC "-//W3C//DTD SVG 1.1//EN" "http://www.w3.org/Graphics/SVG/1.1/DTD/svg11.dtd"><svg version="1.1" xmlns="http://www.w3.org/2000/svg" xmlns:xlink="http://www.w3.org/1999/xlink"  width="30px" height="30px" viewBox="0 0 30 30" class="icon-youtube"><g><path fill="#E32F27" class="bg" d="M30 15C30 23.3 23.3 30 15 30S0 23.3 0 15C0 6.7 6.7 0 15 0S30 6.7 30 15"/><path fill="#FFFFFF" d="M23 13.8c0 0.3 0 0.8 0 1.3 0 0.6 0 1 0 1.3 0 0.3 0 0.7-0.1 1.2 0 0.5-0.1 0.9-0.2 1.3 -0.1 0.4-0.3 0.8-0.6 1.1 -0.3 0.3-0.7 0.5-1.1 0.5 -1.3 0.1-3.3 0.2-6 0.2 -2.7 0-4.7-0.1-6-0.2 -0.4 0-0.8-0.2-1.1-0.5 -0.3-0.3-0.5-0.7-0.6-1.1 -0.1-0.4-0.1-0.8-0.2-1.3 0-0.5-0.1-0.9-0.1-1.2s0-0.8 0-1.3c0-0.6 0-1 0-1.3s0-0.7 0.1-1.2c0-0.5 0.1-0.9 0.2-1.3 0.1-0.4 0.3-0.8 0.6-1.1S8.6 9.7 9 9.7c1.3-0.1 3.3-0.2 6-0.2 2.7 0 4.7 0.1 6 0.2 0.4 0 0.8 0.2 1.1 0.5s0.5 0.7 0.6 1.1c0.1 0.4 0.1 0.8 0.2 1.3C23 13.1 23 13.5 23 13.8zM18.4 15.1c0-0.2-0.1-0.4-0.3-0.5l-4.6-2.9c-0.2-0.1-0.4-0.1-0.6 0 -0.2 0.1-0.3 0.3-0.3 0.5V18c0 0.2 0.1 0.4 0.3 0.5 0.1 0 0.2 0.1 0.3 0.1 0.1 0 0.2 0 0.3-0.1l4.6-2.9C18.3 15.5 18.4 15.4 18.4 15.1z"/></g></svg>
